# xmcd
#
# Track frame offsets: 
#        150
#        14757
#        36207
#        54129
#        70883
#        92887
#        109348
#        126884
#        154382
#        168401
#
# Disc length: 2542 seconds
#
# Revision: 0
# Processed by: cddbd v1.5.2PL0 Copyright (c) Steve Scherf et al.
# Submitted via: ExactAudioCopy v0.95b4
#
DISCID=8809ec0a
DTITLE=Bennie Jolink - Opa vertel es
DYEAR=2007
DGENRE=Blues
TTITLE0=Ies kan Liehn
TTITLE1=Krek alens
TTITLE2=Littekens blieft
TTITLE3=Sloa ow vrouw
TTITLE4=Dan he-j niks
TTITLE5=De beer is los
TTITLE6=woa rum doa rum
TTITLE7=opa vertel es
TTITLE8=t ene of t ander
TTITLE9=goan en stoan
EXTD=
EXTT0=
EXTT1=
EXTT2=
EXTT3=
EXTT4=
EXTT5=
EXTT6=
EXTT7=
EXTT8=
EXTT9=
PLAYORDER=
